HIERARCHY
ROOT Hips
{
    OFFSET 0.000000 97.120003 0.000000
    CHANNELS 6 Xposition Yposition Zposition Yrotation Xrotation Zrotation
    JOINT RightUpLeg
    {
        OFFSET -11.000000 -0.000000 0.000000
        CHANNELS 3 Yrotation Xrotation Zrotation
        JOINT RightLeg
        {
            OFFSET 0.000000 -45.062000 0.000000
            CHANNELS 3 Yrotation Xrotation Zrotation
            JOINT RightFoot
            {
                OFFSET 0.000000 -42.057999 0.000000
                CHANNELS 3 Yrotation Xrotation Zrotation
                End Site
                {
                    OFFSET 0.000000 -10.000000 15.120000
                }
            }
        }
    }
    JOINT LeftUpLeg
    {
        OFFSET 11.000000 -0.000000 0.000000
        CHANNELS 3 Yrotation Xrotation Zrotation
        JOINT LeftLeg
        {
            OFFSET 0.000000 -45.062000 0.000000
            CHANNELS 3 Yrotation Xrotation Zrotation
            JOINT LeftFoot
            {
                OFFSET 0.000000 -42.057999 0.000000
                CHANNELS 3 Yrotation Xrotation Zrotation
                End Site
                {
                    OFFSET 0.000000 -10.000000 15.120000
                }
            }
        }
    }
    JOINT Spine
    {
        OFFSET 0.000000 8.120000 0.000000
        CHANNELS 3 Yrotation Xrotation Zrotation
        JOINT Spine1
        {
            OFFSET 0.000000 17.980000 0.000000
            CHANNELS 3 Yrotation Xrotation Zrotation
            JOINT Spine2
            {
                OFFSET 0.000000 12.760000 0.000000
                CHANNELS 3 Yrotation Xrotation Zrotation
                JOINT Neck
                {
                    OFFSET 0.000000 19.139999 0.000000
                    CHANNELS 3 Yrotation Xrotation Zrotation
                    JOINT Neck1
                    {
                        OFFSET 0.000000 4.250000 0.000000
                        CHANNELS 3 Yrotation Xrotation Zrotation
                        JOINT Head
                        {
                            OFFSET 0.000000 4.250000 0.000000
                            CHANNELS 3 Yrotation Xrotation Zrotation
                            End Site
                            {
                                OFFSET 0.000000 19.120001 0.000000
                            }
                        }
                    }
                }
                JOINT RightShoulder
                {
                    OFFSET -2.900000 13.340000 0.000000
                    CHANNELS 3 Yrotation Xrotation Zrotation
                    JOINT RightArm
                    {
                        OFFSET -16.100000 0.000000 0.000000
                        CHANNELS 3 Yrotation Xrotation Zrotation
                        JOINT RightForeArm
                        {
                            OFFSET -28.000000 0.000000 0.000000
                            CHANNELS 3 Yrotation Xrotation Zrotation
                            JOINT RightHand
                            {
                                OFFSET -26.000000 0.000000 0.000000
                                CHANNELS 3 Yrotation Xrotation Zrotation
                                JOINT RightHandThumb1
                                {
                                    OFFSET -1.937000 -0.484000 2.518000
                                    CHANNELS 3 Yrotation Xrotation Zrotation
                                    JOINT RightHandThumb2
                                    {
                                        OFFSET -3.872000 0.000000 0.000000
                                        CHANNELS 3 Yrotation Xrotation Zrotation
                                        JOINT RightHandThumb3
                                        {
                                            OFFSET -2.690000 0.000000 0.000000
                                            CHANNELS 3 Yrotation Xrotation Zrotation
                                            End Site
                                            {
                                                OFFSET -2.537000 0.000000 0.000000
                                            }
                                        }
                                    }
                                }
                                JOINT RightInHandIndex
                                {
                                    OFFSET -3.389000 0.535000 2.080000
                                    CHANNELS 3 Yrotation Xrotation Zrotation
                                    JOINT RightHandIndex1
                                    {
                                        OFFSET -5.485000 -0.096000 1.051000
                                        CHANNELS 3 Yrotation Xrotation Zrotation
                                        JOINT RightHandIndex2
                                        {
                                            OFFSET -3.806000 0.000000 0.000000
                                            CHANNELS 3 Yrotation Xrotation Zrotation
                                            JOINT RightHandIndex3
                                            {
                                                OFFSET -2.158000 0.000000 0.000000
                                                CHANNELS 3 Yrotation Xrotation Zrotation
                                                End Site
                                                {
                                                    OFFSET -1.898000 0.000000 0.000000
                                                }
                                            }
                                        }
                                    }
                                }
                                JOINT RightInHandMiddle
                                {
                                    OFFSET -3.556000 0.544000 0.796000
                                    CHANNELS 3 Yrotation Xrotation Zrotation
                                    JOINT RightHandMiddle1
                                    {
                                        OFFSET -5.441000 -0.088000 0.330000
                                        CHANNELS 3 Yrotation Xrotation Zrotation
                                        JOINT RightHandMiddle2
                                        {
                                            OFFSET -4.153000 0.000000 0.000000
                                            CHANNELS 3 Yrotation Xrotation Zrotation
                                            JOINT RightHandMiddle3
                                            {
                                                OFFSET -2.603000 0.000000 0.000000
                                                CHANNELS 3 Yrotation Xrotation Zrotation
                                                End Site
                                                {
                                                    OFFSET -2.076000 0.000000 0.000000
                                                }
                                            }
                                        }
                                    }
                                }
                                JOINT RightInHandRing
                                {
                                    OFFSET -3.539000 0.566000 -0.136000
                                    CHANNELS 3 Yrotation Xrotation Zrotation
                                    JOINT RightHandRing1
                                    {
                                        OFFSET -4.873000 -0.023000 -0.504000
                                        CHANNELS 3 Yrotation Xrotation Zrotation
                                        JOINT RightHandRing2
                                        {
                                            OFFSET -3.619000 0.000000 0.000000
                                            CHANNELS 3 Yrotation Xrotation Zrotation
                                            JOINT RightHandRing3
                                            {
                                                OFFSET -2.511000 0.000000 0.000000
                                                CHANNELS 3 Yrotation Xrotation Zrotation
                                                End Site
                                                {
                                                    OFFSET -1.952000 0.000000 0.000000
                                                }
                                            }
                                        }
                                    }
                                }
                                JOINT RightInHandPinky
                                {
                                    OFFSET -3.324000 0.494000 -1.264000
                                    CHANNELS 3 Yrotation Xrotation Zrotation
                                    JOINT RightHandPinky1
                                    {
                                        OFFSET -4.354000 -0.023000 -1.147000
                                        CHANNELS 3 Yrotation Xrotation Zrotation
                                        JOINT RightHandPinky2
                                        {
                                            OFFSET -2.898000 0.000000 0.000000
                                            CHANNELS 3 Yrotation Xrotation Zrotation
                                            JOINT RightHandPinky3
                                            {
                                                OFFSET -1.831000 0.000000 0.000000
                                                CHANNELS 3 Yrotation Xrotation Zrotation
                                                End Site
                                                {
                                                    OFFSET -1.730000 0.000000 0.000000
                                                }
                                            }
                                        }
                                    }
                                }
                            }
                        }
                    }
                }
                JOINT LeftShoulder
                {
                    OFFSET 2.900000 13.340000 0.000000
                    CHANNELS 3 Yrotation Xrotation Zrotation
                    JOINT LeftArm
                    {
                        OFFSET 16.100000 0.000000 0.000000
                        CHANNELS 3 Yrotation Xrotation Zrotation
                        JOINT LeftForeArm
                        {
                            OFFSET 28.000000 0.000000 0.000000
                            CHANNELS 3 Yrotation Xrotation Zrotation
                            JOINT LeftHand
                            {
                                OFFSET 26.000000 0.000000 0.000000
                                CHANNELS 3 Yrotation Xrotation Zrotation
                                JOINT LeftHandThumb1
                                {
                                    OFFSET 1.937000 -0.484000 2.518000
                                    CHANNELS 3 Yrotation Xrotation Zrotation
                                    JOINT LeftHandThumb2
                                    {
                                        OFFSET 3.872000 0.000000 0.000000
                                        CHANNELS 3 Yrotation Xrotation Zrotation
                                        JOINT LeftHandThumb3
                                        {
                                            OFFSET 2.690000 0.000000 0.000000
                                            CHANNELS 3 Yrotation Xrotation Zrotation
                                            End Site
                                            {
                                                OFFSET 2.537000 0.000000 0.000000
                                            }
                                        }
                                    }
                                }
                                JOINT LeftInHandIndex
                                {
                                    OFFSET 3.389000 0.535000 2.080000
                                    CHANNELS 3 Yrotation Xrotation Zrotation
                                    JOINT LeftHandIndex1
                                    {
                                        OFFSET 5.485000 -0.096000 1.051000
                                        CHANNELS 3 Yrotation Xrotation Zrotation
                                        JOINT LeftHandIndex2
                                        {
                                            OFFSET 3.806000 0.000000 0.000000
                                            CHANNELS 3 Yrotation Xrotation Zrotation
                                            JOINT LeftHandIndex3
                                            {
                                                OFFSET 2.158000 0.000000 0.000000
                                                CHANNELS 3 Yrotation Xrotation Zrotation
                                                End Site
                                                {
                                                    OFFSET 1.898000 0.000000 0.000000
                                                }
                                            }
                                        }
                                    }
                                }
                                JOINT LeftInHandMiddle
                                {
                                    OFFSET 3.556000 0.544000 0.796000
                                    CHANNELS 3 Yrotation Xrotation Zrotation
                                    JOINT LeftHandMiddle1
                                    {
                                        OFFSET 5.441000 -0.088000 0.330000
                                        CHANNELS 3 Yrotation Xrotation Zrotation
                                        JOINT LeftHandMiddle2
                                        {
                                            OFFSET 4.153000 0.000000 0.000000
                                            CHANNELS 3 Yrotation Xrotation Zrotation
                                            JOINT LeftHandMiddle3
                                            {
                                                OFFSET 2.603000 0.000000 0.000000
                                                CHANNELS 3 Yrotation Xrotation Zrotation
                                                End Site
                                                {
                                                    OFFSET 2.076000 0.000000 0.000000
                                                }
                                            }
                                        }
                                    }
                                }
                                JOINT LeftInHandRing
                                {
                                    OFFSET 3.539000 0.566000 -0.136000
                                    CHANNELS 3 Yrotation Xrotation Zrotation
                                    JOINT LeftHandRing1
                                    {
                                        OFFSET 4.873000 -0.023000 -0.504000
                                        CHANNELS 3 Yrotation Xrotation Zrotation
                                        JOINT LeftHandRing2
                                        {
                                            OFFSET 3.619000 0.000000 0.000000
                                            CHANNELS 3 Yrotation Xrotation Zrotation
                                            JOINT LeftHandRing3
                                            {
                                                OFFSET 2.511000 0.000000 0.000000
                                                CHANNELS 3 Yrotation Xrotation Zrotation
                                                End Site
                                                {
                                                    OFFSET 1.952000 0.000000 0.000000
                                                }
                                            }
                                        }
                                    }
                                }
                                JOINT LeftInHandPinky
                                {
                                    OFFSET 3.324000 0.494000 -1.264000
                                    CHANNELS 3 Yrotation Xrotation Zrotation
                                    JOINT LeftHandPinky1
                                    {
                                        OFFSET 4.354000 -0.023000 -1.147000
                                        CHANNELS 3 Yrotation Xrotation Zrotation
                                        JOINT LeftHandPinky2
                                        {
                                            OFFSET 2.898000 0.000000 0.000000
                                            CHANNELS 3 Yrotation Xrotation Zrotation
                                            JOINT LeftHandPinky3
                                            {
                                                OFFSET 1.831000 0.000000 0.000000
                                                CHANNELS 3 Yrotation Xrotation Zrotation
                                                End Site
                                                {
                                                    OFFSET 1.730000 0.000000 0.000000
                                                }
                                            }
                                        }
                                    }
                                }
                            }
                        }
                    }
                }
            }
        }
    }
}
MOTION
Frames: 4
Frame Time: 0.010417
0.000000 97.119995 0.000000 0.000000 0.000000 0.000000 0.000000 0.000000 0.000000 0.000000 0.000000 0.000000 0.000000 0.000000 0.000000 0.000000 0.000000 0.000000 0.000000 0.000000 0.000000 0.000000 0.000000 0.000000 0.000000 0.000000 0.000000 0.000000 0.000000 0.000000 0.000000 0.000000 0.000000 0.000000 0.000000 0.000000 0.000000 0.000000 0.000000 0.000000 0.000000 0.000000 0.000000 0.000000 0.000000 0.000000 0.000000 0.000000 0.000000 0.000000 0.000000 0.000000 0.000000 0.000000 0.000000 0.000000 0.000000 0.000000 0.000000 0.000000 0.000000 0.000000 0.000000 0.000000 0.000000 0.000000 0.000000 0.000000 0.000000 0.000000 0.000000 0.000000 0.000000 0.000000 0.000000 0.000000 0.000000 0.000000 0.000000 0.000000 0.000000 0.000000 0.000000 0.000000 0.000000 0.000000 0.000000 0.000000 0.000000 0.000000 0.000000 0.000000 0.000000 0.000000 0.000000 0.000000 0.000000 0.000000 0.000000 0.000000 0.000000 0.000000 0.000000 0.000000 0.000000 0.000000 0.000000 0.000000 0.000000 0.000000 0.000000 0.000000 0.000000 0.000000 0.000000 0.000000 0.000000 0.000000 0.000000 0.000000 0.000000 0.000000 0.000000 0.000000 0.000000 0.000000 0.000000 0.000000 0.000000 0.000000 0.000000 0.000000 0.000000 0.000000 0.000000 0.000000 0.000000 0.000000 0.000000 0.000000 0.000000 0.000000 0.000000 0.000000 0.000000 0.000000 0.000000 0.000000 0.000000 0.000000 0.000000 0.000000 0.000000 0.000000 0.000000 0.000000 0.000000 0.000000 0.000000 0.000000 0.000000 0.000000 0.000000 0.000000 0.000000 0.000000 0.000000 0.000000 0.000000 0.000000 0.000000 0.000000 0.000000 0.000000 0.000000 0.000000 0.000000 0.000000 0.000000 0.000000
84.290138 97.021805 -59.061462 175.737305 -0.306806 -0.145783 179.421799 175.178452 178.020935 174.929932 -179.537048 -178.544693 6.803144 -3.029500 1.035936 175.655670 174.042007 179.665237 176.961441 -178.056046 -178.658539 3.503486 -2.890785 -1.340283 179.593231 179.065353 179.763123 179.593246 179.084442 179.609756 178.112579 179.361206 179.463806 0.000000 -4.610054 0.228214 0.000000 -5.378396 0.236365 4.868999 -3.967134 -0.195000 5.818747 -1.084764 7.500558 177.227905 179.096985 -101.456619 2.513140 -8.881044 -1.348167 179.829987 -165.891403 178.196915 56.716404 35.854904 17.324343 0.000000 -0.000000 10.322568 0.000000 -0.000000 6.874832 0.000000 -0.000000 0.000000 15.000002 -0.000001 12.820555 0.000003 -0.000004 10.489543 180.000000 180.000000 -172.657318 0.000000 -0.000000 0.000000 180.000000 -180.000000 -166.044754 0.000000 0.000001 13.955242 0.000001 -0.000001 9.294192 0.000000 -0.000000 0.000000 170.000000 -180.000000 -165.869522 180.000000 -180.000000 -165.869537 0.000000 -0.000000 9.410896 0.000000 -0.000000 0.000000 160.000000 180.000000 -167.372635 180.000000 180.000000 -161.058960 0.000001 -0.000002 12.614721 176.026733 -175.947525 167.909515 175.535690 168.919769 109.522202 172.415283 -168.203094 -178.930405 177.474716 -175.603348 174.827057 132.385559 132.041290 167.335785 180.000000 -179.999985 170.708237 180.000000 179.999985 173.811676 0.000000 -0.000000 0.000000 165.000000 -180.000000 162.740509 0.000000 -0.000002 -14.121396 0.000001 0.000002 -9.884975 0.000000 -0.000000 0.000000 0.000000 -0.000000 -16.585302 180.000000 -180.000000 163.414688 0.000000 -0.000000 -11.045804 0.000000 -0.000000 0.000000 10.000001 -0.000000 -17.517103 180.000000 180.000000 162.482895 180.000000 180.000000 168.333588 0.000000 -0.000000 0.000000 20.000002 -0.000001 -19.200878 0.000000 0.000000 -28.801323 180.000000 180.000000 160.818314
84.288773 97.021980 -59.064514 175.735352 -0.305982 -0.146070 179.422516 175.180679 178.019653 174.934143 -179.542770 -178.544708 6.801227 -3.032841 1.035780 175.660919 174.040680 179.664062 176.960434 -178.056290 -178.658127 3.502563 -2.892841 -1.338652 179.593185 179.068054 179.763382 179.593185 179.087097 179.610184 178.112305 179.363098 179.464432 0.000000 -4.606158 0.230042 0.000001 -5.373848 0.238259 4.859964 -3.963914 -0.192962 5.836386 -1.083722 7.512997 177.221436 179.112152 -101.530251 2.511610 -8.873347 -1.344939 179.825638 -165.895981 178.206955 56.714386 35.837509 17.319578 0.000000 -0.000000 10.327279 180.000000 180.000000 -173.122025 0.000000 -0.000000 0.000000 15.000004 0.000001 12.831450 180.000000 -179.999985 -169.501541 0.000003 -0.000004 7.348915 0.000000 -0.000000 0.000000 180.000000 -180.000000 -166.036224 180.000000 180.000000 -166.036209 180.000000 -180.000000 -170.700119 0.000000 -0.000000 0.000000 170.000000 -180.000000 -165.859604 0.000000 0.000001 14.140405 0.000002 -0.000000 9.417506 0.000000 -0.000000 0.000000 160.000000 180.000000 -167.361679 180.000000 180.000000 -161.042526 180.000000 -180.000000 -167.374313 176.029861 -175.947128 167.908829 175.546844 168.934082 109.571861 172.434006 -168.214508 -178.933304 177.473755 -175.597290 174.819183 132.376617 132.039642 167.322205 0.000003 0.000000 -9.293806 0.000004 -0.000003 -6.189678 0.000000 -0.000000 0.000000 165.000015 -180.000000 162.745834 0.000002 0.000000 -14.117043 0.000001 0.000000 -9.881927 0.000000 -0.000000 0.000000 180.000000 -180.000000 163.418457 180.000000 180.000000 163.418457 0.000000 0.000000 -11.043310 0.000000 -0.000000 0.000000 10.000000 0.000001 -17.515251 0.000000 0.000000 -17.515251 0.000000 0.000000 -11.665154 0.000000 -0.000000 0.000000 19.999998 0.000001 -19.197603 0.000000 -0.000002 -28.796394 0.000001 0.000000 -19.178392
84.287338 97.022186 -59.067665 175.733475 -0.305940 -0.146968 179.422546 175.180893 178.017838 174.938553 -179.547867 -178.543518 6.799772 -3.036707 1.035553 175.664871 174.037872 179.662704 176.961273 -178.055588 -178.656876 3.500859 -2.894475 -1.338526 179.592743 179.070679 179.763672 179.592758 179.089676 179.610641 178.110275 179.364960 179.465103 0.000000 -4.601861 0.231945 0.000001 -5.368832 0.240229 4.854689 -3.960333 -0.191110 5.855772 -1.080411 7.525427 177.212982 179.128220 -101.601273 2.509743 -8.863976 -1.340632 179.821289 -165.901230 178.223526 56.690781 35.825314 17.305586 0.000000 -0.000000 10.337277 180.000000 180.000000 -173.115372 0.000000 -0.000000 0.000000 15.000002 -0.000002 12.842383 0.000000 0.000002 10.507394 180.000000 -179.999985 -172.644821 0.000000 -0.000000 0.000000 180.000000 179.999985 -166.027512 180.000000 -180.000000 -166.027512 0.000000 -0.000000 9.305681 0.000000 -0.000000 0.000000 170.000000 180.000000 -165.851730 180.000000 -179.999985 -165.851730 180.000000 180.000000 -170.577255 0.000000 -0.000000 0.000000 160.000015 -180.000000 -167.351212 180.000000 180.000000 -161.026810 180.000000 180.000000 -167.363846 176.036774 -175.947342 167.908981 175.555206 168.948929 109.620476 172.454224 -168.226730 -178.935913 177.472626 -175.591553 174.812119 132.360077 132.039215 167.299973 0.000000 0.000000 -9.296709 180.000000 -179.999985 173.808380 0.000000 -0.000000 0.000000 165.000015 180.000000 162.750000 0.000002 -0.000001 -14.113647 180.000000 180.000000 170.120453 0.000000 -0.000000 0.000000 0.000000 0.000000 -16.582180 0.000000 0.000000 -16.582190 0.000000 0.000000 -11.043731 0.000000 -0.000000 0.000000 10.000001 0.000000 -17.516344 0.000000 0.000000 -17.516335 0.000000 0.000000 -11.665875 0.000000 -0.000000 0.000000 20.000002 0.000000 -19.197777 0.000000 0.000000 -28.796661 180.000000 -180.000000 160.821426
